<svg xmlns="http://www.w3.org/2000/svg" width="250" height="80" preserveAspectRatio="xMidYMid meet" viewBox="0 0 187.5 60" zoomAndPan="magnify"><defs><clipPath id="5fa81448db"><path d="M0 0h124v34H0z"/></clipPath><clipPath id="7d91ca8e68"><path d="M78.25 6.063h30.672v18.703H78.25Zm0 0" clip-rule="nonzero"/></clipPath><clipPath id="05c8b4d504"><path d="M96 6.063h4V10h-4Zm0 0" clip-rule="nonzero"/></clipPath></defs><g fill="#fff" fill-opacity="1" clip-path="url(#5fa81448db)" transform="translate(36 15)"><path d="M10.222 27.271q-2.455-.002-4.563-.671-2.095-.687-3.312-1.579l-.125-4.78.421-.063a11.6 11.6 0 0 0 1.829 3.265 8.6 8.6 0 0 0 2.812 2.313q1.655.86 3.766.86 1.107 0 2.062-.47a4.03 4.03 0 0 0 1.563-1.359c.406-.594.61-1.32.61-2.187q-.002-1.184-.673-2.063a6.4 6.4 0 0 0-1.703-1.516 14.7 14.7 0 0 0-2.187-1.14q-1.144-.499-2.094-.89a56 56 0 0 1-3-1.391q-1.36-.704-2.188-1.797-.83-1.108-.828-2.953 0-2.966 2.203-4.688Q7.031 4.444 10.8 4.443q1.779 0 3.312.36 1.545.345 2.797.984l.125 4.14-.344.126q-1.002-2.45-2.89-3.75A7.24 7.24 0 0 0 9.58 4.99q-1.91.001-3.234 1.063-1.313 1.066-1.313 2.953 0 1.048.516 1.828.527.784 1.406 1.36c.582.374 1.207.71 1.875 1 .664.28 1.32.554 1.969.812q1.2.47 2.453 1.015 1.265.534 2.312 1.266a5.8 5.8 0 0 1 1.688 1.766q.64 1.02.64 2.437-.002 1.63-.671 2.906a6.5 6.5 0 0 1-1.782 2.125 8.2 8.2 0 0 1-2.484 1.313 9 9 0 0 1-2.734.437m17.452-.312v-.453q.797-.247 1.032-1.063.234-.809.234-2.531V6.037q-.002-1.404-.344-1.844-.328-.45-.922-.703v-.453l4.204-1.844.312.266v12.219a17.8 17.8 0 0 1 3-1.97 7.46 7.46 0 0 1 3.531-.89c1.47 0 2.649.414 3.547 1.235q1.36 1.22 1.36 4.015v6.844q0 1.722.234 2.531.234.816 1.031 1.063v.453h-5.797v-.453q.797-.247 1.032-1.063.248-.809.25-2.531v-6.266q-.002-2.168-.907-3.359-.907-1.201-2.687-1.203-1.126 0-2.203.547-1.079.55-2.39 1.594v8.687q0 1.722.233 2.531.249.816 1.047 1.063v.453Zm27.063 0v-.453q.796-.247 1.03-1.063.249-.809.25-2.531v-7.328q-.001-1.389-.343-1.828-.328-.451-.937-.719V12.6l4.203-1.844.312.25v11.906q0 1.722.235 2.531.248.816 1.046 1.063v.453Zm.546-19.453q0-.92.625-1.563.64-.64 1.532-.64.951 0 1.562.64.61.644.61 1.563-.002.891-.625 1.531-.627.626-1.547.625a2.1 2.1 0 0 1-1.532-.625 2.1 2.1 0 0 1-.625-1.531M70.69 26.959v-.453q.797-.247 1.031-1.063.248-.809.25-2.531v-7.328q-.002-1.389-.343-1.828-.33-.451-.938-.719V12.6l4.203-1.844.313.25v2.672a17.8 17.8 0 0 1 3-1.97 7.46 7.46 0 0 1 3.531-.89c1.469 0 2.648.414 3.547 1.235q1.36 1.22 1.36 4.015v6.844q0 1.722.234 2.531.248.816 1.046 1.063v.453h-5.796v-.453q.796-.247 1.03-1.063.235-.809.235-2.531v-6.266q-.001-2.168-.906-3.359-.907-1.201-2.688-1.203-1.113 0-2.203.547-1.077.55-2.39 1.594v8.687q0 1.722.234 2.531c.164.543.516.899 1.047 1.063v.453Zm34.708.312a7.9 7.9 0 0 1-2.657-.468q-1.33-.481-2.437-1.438-1.113-.95-1.781-2.375-.673-1.435-.672-3.39-.001-2.027.718-3.657a8.4 8.4 0 0 1 1.922-2.765 8.6 8.6 0 0 1 2.688-1.75 7.9 7.9 0 0 1 3.047-.61c1.445 0 2.656.29 3.625.86q1.466.86 2.218 2.172c.5.867.75 1.765.75 2.703h-12.062q-.036.253-.047.5-.017.252-.016.515 0 2.064.797 3.688.81 1.63 2.297 2.531 1.482.907 3.485.906c1.195 0 2.25-.226 3.156-.687a7.9 7.9 0 0 0 2.36-1.828l.28.328a15.4 15.4 0 0 1-1.812 2.219 9.5 9.5 0 0 1-2.547 1.828q-1.472.716-3.312.718m-4.61-11.171h8.813a6.5 6.5 0 0 0-.813-2.375 5.5 5.5 0 0 0-1.531-1.704 3.43 3.43 0 0 0-2.016-.64q-1.346-.029-2.265.64a4.8 4.8 0 0 0-1.469 1.766 7.9 7.9 0 0 0-.719 2.313m0 0"/></g><g clip-path="url(#7d91ca8e68)"><path fill="#ffd97d" fill-opacity="1" fill-rule="nonzero" d="M108.742 21.309c-14.097.632-14.613 1.148-15.246 15.246-.633-14.098-1.148-14.614-15.246-15.246 14.098-.633 14.613-1.149 15.246-15.247.633 14.098 1.149 14.614 15.246 15.247m0 0"/></g><path fill="#ffd97d" fill-opacity="1" fill-rule="nonzero" d="M90.055 13.258c-3.149.14-3.262.254-3.407 3.402-.14-3.148-.253-3.262-3.402-3.402 3.149-.14 3.262-.258 3.402-3.406.145 3.148.258 3.265 3.407 3.406m17.093-.289c-4.62.207-4.789.375-5 5-.207-4.625-.375-4.793-5-5 4.625-.207 4.793-.375 5-5 .211 4.625.38 4.793 5 5m0-3.406c-1.257.058-1.304.105-1.359 1.363-.059-1.258-.105-1.305-1.363-1.364 1.258-.054 1.304-.101 1.363-1.359.055 1.258.102 1.305 1.36 1.36m0 0"/><g clip-path="url(#05c8b4d504)"><path fill="#ffd97d" fill-opacity="1" fill-rule="nonzero" d="M99.297 7.969c-1.262.058-1.309.101-1.363 1.363-.059-1.262-.102-1.305-1.364-1.363 1.262-.055 1.305-.102 1.364-1.364.054 1.262.101 1.31 1.363 1.364m0 0"/></g></svg>